<svg data-v-0dd9719b="" version="1.0" xmlns="http://www.w3.org/2000/svg" xmlns:xlink="http://www.w3.org/1999/xlink" width="100%" height="100%" viewBox="0 0 340.000000 250.000000" preserveAspectRatio="xMidYMid meet" color-interpolation-filters="sRGB" style="margin: auto;"> <rect data-v-0dd9719b="" x="0" y="0" width="100%" height="100%" fill="#fff" fill-opacity="1" class="background"></rect> <rect data-v-0dd9719b="" x="0" y="0" width="100%" height="100%" fill="url(#watermark)" fill-opacity="1" class="watermarklayer"></rect> <g data-v-0dd9719b="" fill="#be1d2c" class="icon-text-wrapper icon-svg-group iconsvg" transform="translate(51.029998779296875,93.2415599822998)"><g class="iconsvg-imagesvg" transform="translate(0,0)"><g><rect fill="#be1d2c" fill-opacity="0" stroke-width="2" x="0" y="0" width="65" height="63.51688083255973" class="image-rect"></rect> <svg x="0" y="0" width="65" height="63.51688083255973" filtersec="colorsb2682011753" class="image-svg-svg primary" style="overflow: visible;"><svg xmlns="http://www.w3.org/2000/svg" viewBox="-0.021011069416999817 -0.010004597716033459 57.02101135253906 55.72000503540039"><g><g><path d="M33.14 52.1A24.25 24.25 0 1 1 48.28 8.92a27.86 27.86 0 1 0 0 37.86 24.11 24.11 0 0 1-15.14 5.32z" fill="#be1d2c"></path><path d="M43.44 32a17.64 17.64 0 0 1-21.49 13 20.63 20.63 0 0 0 31.63-13zM57 26.77c-7.39-5.76-8.71-5.76-16.1 0 5.76-7.39 5.76-8.71 0-16.1 7.39 5.76 8.71 5.76 16.1 0-5.73 7.39-5.73 8.71 0 16.1z" fill="#404041"></path><ellipse cx="48.51" cy="31.96" rx="5.07" ry="4.88" fill="#404041"></ellipse></g></g></svg></svg> <!----></g></g> <g transform="translate(72,4.397192001342773)"><g data-gra="path-name" fill-rule="" class="tp-name iconsvg-namesvg" transform="translate(0,0)"><g transform="scale(1)"><g><path d="M35.59-8.21L40.3-6.78Q40.3-6.18 40.25-5.49 40.21-4.79 40.15-4.12 40.08-3.46 39.99-2.85 39.91-2.25 39.87-1.86L39.87-1.86Q39.61-0.35 39.2 0.69 38.79 1.73 38.09 2.38 37.4 3.02 36.37 3.3 35.33 3.58 33.86 3.58L33.86 3.58 29.89 3.58Q27.3 3.58 26.07 2.31 24.83 1.04 24.83-2.07L24.83-2.07 24.83-8.72Q23.11-5.1 20.39-1.75 17.67 1.6 13.61 5.14L13.61 5.14 9.46 0.99Q13-1.9 15.48-4.51 17.97-7.13 19.54-9.96 21.12-12.78 21.96-16.11 22.8-19.44 23.11-23.76L23.11-23.76 18.36-23.76 18.36-18.01 13.52-18.01 13.52-28.46 10.84-24.06Q10.19-24.71 9.26-25.5 8.34-26.3 7.34-27.1 6.35-27.9 5.38-28.61 4.41-29.33 3.63-29.85L3.63-29.85 6.44-34.03Q7.17-33.56 8.12-32.89 9.07-32.22 10.04-31.49 11.01-30.75 11.92-30.02 12.83-29.28 13.52-28.72L13.52-28.72 23.32-28.72Q23.37-30.23 23.39-31.75 23.41-33.26 23.45-34.12L23.45-34.12 28.72-33.9Q28.68-33.04 28.66-31.59 28.64-30.15 28.55-28.72L28.55-28.72 38.79-28.72 38.79-17.97 33.86-17.97 33.86-23.76 28.33-23.76Q28.25-22.37 28.12-21.03 27.99-19.7 27.77-18.44L27.77-18.44 29.85-18.36 29.85-3.2Q29.85-1.94 30.13-1.64 30.41-1.34 31.44-1.34L31.44-1.34 33.34-1.34Q33.86-1.34 34.16-1.4 34.47-1.47 34.66-1.64 34.86-1.81 34.98-2.16 35.11-2.51 35.2-3.11L35.2-3.11Q35.42-4.36 35.5-5.7 35.59-7.04 35.59-8.21L35.59-8.21ZM12.4-18.96L9.67-14.25Q8.94-14.94 7.95-15.79 6.95-16.63 5.85-17.49 4.75-18.36 3.69-19.13 2.63-19.91 1.81-20.43L1.81-20.43 4.79-24.83Q5.57-24.32 6.59-23.6 7.6-22.89 8.64-22.07 9.67-21.25 10.67-20.45 11.66-19.65 12.4-18.96L12.4-18.96ZM10.37-11.4L12.91-10.32Q12.61-9.29 11.88-7.36 11.14-5.44 10.3-3.35 9.46-1.25 8.66 0.67 7.86 2.59 7.34 3.58L7.34 3.58 2.59 1.25Q2.89 0.69 3.35-0.32 3.8-1.34 4.34-2.59 4.88-3.84 5.46-5.25 6.05-6.65 6.57-7.99 7.08-9.33 7.49-10.47 7.9-11.62 8.16-12.4L8.16-12.4 10.37-11.4ZM60.51-33.34L60.51-27.94Q59.82-25.74 59.04-23.6 58.26-21.47 57.36-19.26L57.36-19.26Q59.17-16.5 59.95-14.02 60.73-11.53 60.73-8.94L60.73-8.94Q60.73-5.83 59.56-4.1 58.39-2.38 55.46-1.94L55.46-1.94 53.51-1.64 51.87-7.04 53.38-7.26Q54.03-7.34 54.46-7.45 54.9-7.56 55.15-7.84 55.41-8.12 55.52-8.66 55.63-9.2 55.63-10.19L55.63-10.19Q55.63-13.61 52.13-18.36L52.13-18.36Q53.04-20.77 53.84-23.13 54.64-25.48 55.33-27.9L55.33-27.9 51.74-27.9 51.74 3.93 46.65 3.93 46.65-33.34 60.51-33.34ZM62.02-32.39L81.07-32.39 81.07 2.89 62.02 2.89 62.02-32.39ZM76.15-27.04L66.99-27.04 66.99-17.88 76.15-17.88 76.15-27.04ZM66.99-2.38L76.15-2.38 76.15-12.35 66.99-12.35 66.99-2.38ZM125.3-19.65L125.3-14.64 120.68-14.64 120.68-2.03Q120.68-0.22 120.46 0.95 120.24 2.12 119.68 2.85 119.12 3.58 118.11 3.95 117.09 4.32 115.49 4.45L115.49 4.45 111.99 4.75 110.57 0.26 91.48 0.26 91.48-13 111-13 111-0.09 113.33-0.39Q113.94-0.48 114.31-0.6 114.67-0.73 114.87-0.99 115.06-1.25 115.13-1.66 115.19-2.07 115.19-2.68L115.19-2.68 115.19-14.64 87.12-14.64 87.12-19.65 92.17-19.65 91.09-22.59Q93.47-23.02 95.24-23.43 97.01-23.84 98.3-24.25 99.6-24.66 100.48-25.14 101.37-25.61 101.93-26.17L101.93-26.17 89.66-26.17 89.66-31.05 103.49-31.05Q103.53-31.83 103.57-32.72 103.62-33.6 103.57-34.08L103.57-34.08 108.93-33.86Q108.93-33.39 108.91-32.59 108.88-31.79 108.84-31.05L108.84-31.05 122.71-31.05 122.71-26.17 110.44-26.17Q111.78-25.7 113.23-25.16 114.67-24.62 116.03-24.12 117.39-23.63 118.58-23.17 119.77-22.72 120.59-22.37L120.59-22.37 119.03-19.65 125.3-19.65ZM106.29-23.37L106.29-23.37Q104.18-21.12 99.12-19.65L99.12-19.65 114.8-19.65Q112.77-20.56 110.46-21.57 108.15-22.59 106.29-23.37ZM105.6-4.54L105.6-8.29 96.88-8.29 96.88-4.54 105.6-4.54ZM143.83-28.12L143.83-22.8Q142.44-20 140.85-17.49L140.85-17.49Q142.14-16.5 143.46-15.44 144.78-14.38 145.51-13.78L145.51-13.78 142.7-9.16Q142.23-9.76 141.62-10.45 141.02-11.14 140.33-11.79L140.33-11.79 140.33 4.19 135.19 4.19 135.19-10.41Q134.32-9.5 133.4-8.6 132.47-7.69 131.47-6.78L131.47-6.78 128.54-11.36Q131.91-14.47 134.35-17.23 136.79-20 138.25-22.85L138.25-22.85 131-22.85 131-28.12 135.45-28.12 134.19-33.95 139.2-34.21 140.37-28.12 143.83-28.12ZM167.75-9.93L167.75-4.58 158.12-4.58 158.12 4.15 152.55 4.15 152.55-4.58 143.31-4.58 143.31-9.93 152.55-9.93 152.55-13.78 145.51-13.78 145.51-19.09 152.55-19.09 152.55-23.02 144.91-23.02 144.91-28.25 148.53-28.25 147.07-33.47 152.64-33.82 153.8-28.25 157.04-28.25 158.55-33.78 164.08-33.43 162.44-28.25 166.54-28.25 166.54-23.02 158.12-23.02 158.12-19.09 165.72-19.09 165.72-13.78 158.12-13.78 158.12-9.93 167.75-9.93Z" transform="translate(-1.809999942779541, 34.209999084472656)"></path></g> <!----> <!----> <!----> <!----> <!----> <!----> <!----></g></g> <g data-gra="path-slogan" fill-rule="" class="tp-slogan iconsvg-slogansvg" fill="#404041" transform="translate(5,44.349998474121094)"><rect x="0" height="1" y="4.185000419616699" width="15.554176330566406"></rect> <rect height="1" y="4.185000419616699" width="15.554176330566406" x="140.38582611083984"></rect> <g transform="translate(18.554176330566406,0)"><g transform="scale(1)"><path d="M7.17-6.09L7.17-6.09L6.09-6.09Q6-7.73 3.94-7.83L3.94-7.83Q2.02-7.78 2.02-6.33L2.02-6.33Q2.02-5.39 3.05-5.25L3.05-5.25L5.48-4.69Q7.41-4.22 7.41-2.34L7.41-2.34Q7.36 0.05 4.03 0.14L4.03 0.14Q2.20 0.14 1.45-0.61L1.45-0.61Q0.52-1.31 0.56-2.77L0.56-2.77L1.69-2.77Q1.73-0.80 4.03-0.75L4.03-0.75Q6.28-0.80 6.33-2.20L6.33-2.20Q6.52-3.38 4.45-3.75L4.45-3.75L2.67-4.13Q0.84-4.64 0.84-6.19L0.84-6.19Q0.98-8.72 3.84-8.81L3.84-8.81Q7.08-8.81 7.17-6.09ZM10.03-5.06L14.53-5.06L14.53-8.58L15.70-8.58L15.70 0L14.53 0L14.53-3.98L10.03-3.98L10.03 0L8.86 0L8.86-8.58L10.03-8.58L10.03-5.06ZM18.80-1.03L23.95-1.03L23.95 0L17.63 0L17.63-8.58L23.86-8.58L23.86-7.59L18.80-7.59L18.80-4.92L23.48-4.92L23.48-3.89L18.80-3.89L18.80-1.03ZM26.86-8.58L31.17-1.64L31.17-8.58L32.30-8.58L32.30 0L30.98 0L26.63-6.94L26.58-6.94L26.58 0L25.45 0L25.45-8.58L26.86-8.58ZM41.02-8.58L37.78-3.47L37.78 0L36.61 0L36.61-3.47L33.38-8.58L34.73-8.58L37.17-4.45L39.66-8.58L41.02-8.58ZM47.72 0L46.88-2.48L43.41-2.48L42.52 0L41.34 0L44.58-8.58L45.89-8.58L48.98 0L47.72 0ZM45.14-7.31L43.78-3.52L46.45-3.52L45.19-7.31L45.14-7.31ZM51.42-8.58L55.73-1.64L55.73-8.58L56.86-8.58L56.86 0L55.55 0L51.19-6.94L51.14-6.94L51.14 0L50.02 0L50.02-8.58L51.42-8.58ZM65.06-3.61L62.44-3.61L62.44-4.59L66.19-4.59L66.19 0L65.44 0L65.16-1.08Q64.17 0.09 62.34 0.14L62.34 0.14Q60.61 0.14 59.67-0.75L59.67-0.75Q58.27-2.06 58.31-4.36L58.31-4.36Q58.64-8.63 62.39-8.81L62.39-8.81Q65.58-8.63 66.05-6L66.05-6L64.92-6Q64.45-7.78 62.34-7.83L62.34-7.83Q59.67-7.64 59.53-4.31L59.53-4.31Q59.53-0.75 62.39-0.75L62.39-0.75Q63.42-0.75 64.17-1.31L64.17-1.31Q65.11-2.06 65.06-3.61L65.06-3.61ZM76.31-1.08L75.42-1.78L76.03-2.48L77.11-1.64Q78.09-2.63 78.09-4.27L78.09-4.27Q77.91-7.64 75.09-7.83L75.09-7.83Q72.23-7.69 72.09-4.27L72.09-4.27Q72.23-0.94 75.09-0.80L75.09-0.80Q75.80-0.80 76.31-1.08L76.31-1.08ZM78.05-0.94L79.17-0.05L78.61 0.56L77.30-0.33Q76.45 0.14 75.09 0.14L75.09 0.14Q71.16 0 70.88-4.27L70.88-4.27Q71.11-8.72 75.09-8.81L75.09-8.81Q78.98-8.67 79.27-4.27L79.27-4.27Q79.22-2.20 78.05-0.94L78.05-0.94ZM80.81-8.58L81.98-8.58L81.98 0L80.81 0L80.81-8.58ZM90.70-8.58L87.80-4.41L90.84 0L89.39 0L87.05-3.52L84.70 0L83.30 0L86.39-4.41L83.48-8.58L84.94-8.58L87.09-5.30L89.30-8.58L90.70-8.58ZM92.11-8.58L93.28-8.58L93.28 0L92.11 0L92.11-8.58ZM100.92 0L100.08-2.48L96.61-2.48L95.72 0L94.55 0L97.78-8.58L99.09-8.58L102.19 0L100.92 0ZM98.34-7.31L96.98-3.52L99.66-3.52L98.39-7.31L98.34-7.31ZM104.63-8.58L108.94-1.64L108.94-8.58L110.06-8.58L110.06 0L108.75 0L104.39-6.94L104.34-6.94L104.34 0L103.22 0L103.22-8.58L104.63-8.58ZM118.27-3.61L115.64-3.61L115.64-4.59L119.39-4.59L119.39 0L118.64 0L118.36-1.08Q117.38 0.09 115.55 0.14L115.55 0.14Q113.81 0.14 112.88-0.75L112.88-0.75Q111.47-2.06 111.52-4.36L111.52-4.36Q111.84-8.63 115.59-8.81L115.59-8.81Q118.78-8.63 119.25-6L119.25-6L118.13-6Q117.66-7.78 115.55-7.83L115.55-7.83Q112.88-7.64 112.73-4.31L112.73-4.31Q112.73-0.75 115.59-0.75L115.59-0.75Q116.63-0.75 117.38-1.31L117.38-1.31Q118.31-2.06 118.27-3.61L118.27-3.61Z" transform="translate(-0.5602678571428572, 8.8125)"></path></g></g></g></g></g><defs v-gra="od"></defs></svg>